STARTFONT 2.3
FONT -FontForge-Fontdiner Swanky-Book-R-Normal--9-90-72-72-P-56-ISO10646-1
SIZE 9 72 72  4
FONTBOUNDINGBOX 13 15 -2 -5
COMMENT "Generated by fontforge, http://fontforge.sourceforge.net"
COMMENT "Copyright (c) 2010 by Font Diner, Inc. All rights reserved."
STARTPROPERTIES 40
FOUNDRY "FontForge"
FAMILY_NAME "Fontdiner Swanky"
WEIGHT_NAME "Book"
SLANT "R"
SETWIDTH_NAME "Normal"
ADD_STYLE_NAME ""
PIXEL_SIZE 9
POINT_SIZE 90
RESOLUTION_X 72
RESOLUTION_Y 72
SPACING "P"
AVERAGE_WIDTH 56
CHARSET_REGISTRY "ISO10646"
CHARSET_ENCODING "1"
FONTNAME_REGISTRY ""
CHARSET_COLLECTIONS "ISO10646-1"
BITS_PER_PIXEL 4
FONT_NAME "FontdinerSwanky-Regular"
FACE_NAME "Fontdiner Swanky Regular"
COPYRIGHT "Copyright (c) 2010 by Font Diner, Inc. All rights reserved."
FONT_VERSION "1.001"
FONT_ASCENT 7
FONT_DESCENT 2
UNDERLINE_POSITION -1
UNDERLINE_THICKNESS 1
X_HEIGHT 4
CAP_HEIGHT 5
RAW_ASCENT 799
RAW_DESCENT 200
NORM_SPACE 3
RELATIVE_WEIGHT 40
RELATIVE_SETWIDTH 50
SUPERSCRIPT_X 0
SUPERSCRIPT_Y 4
SUPERSCRIPT_SIZE 5
SUBSCRIPT_X 0
SUBSCRIPT_Y 1
SUBSCRIPT_SIZE 5
AVG_LOWERCASE_WIDTH 56
AVG_UPPERCASE_WIDTH 69
ENDPROPERTIES
CHARS 231
STARTCHAR space
ENCODING 32
SWIDTH 320 0
DWIDTH 3 0
BBX 1 1 0 0
BITMAP
00
ENDCHAR
STARTCHAR exclam
ENCODING 33
SWIDTH 305 0
DWIDTH 3 0
BBX 3 8 0 0
BITMAP
1850
3F90
3F60
4F30
4F00
5C00
4500
CB00
ENDCHAR
STARTCHAR quotedbl
ENCODING 34
SWIDTH 369 0
DWIDTH 3 0
BBX 4 3 0 3
BITMAP
C9E3
C7F1
4260
ENDCHAR
STARTCHAR numbersign
ENCODING 35
SWIDTH 702 0
DWIDTH 6 0
BBX 7 7 0 0
BITMAP
01102000
07A0E000
AFFEFD20
2A85D200
6CBAE800
7DABD800
09257000
ENDCHAR
STARTCHAR dollar
ENCODING 36
SWIDTH 545 0
DWIDTH 5 0
BBX 5 9 0 -2
BITMAP
037000
08D120
AA7C70
CC6250
3BFE50
A32CB0
9BDC50
12F000
002000
ENDCHAR
STARTCHAR percent
ENCODING 37
SWIDTH 657 0
DWIDTH 6 0
BBX 6 8 0 -1
BITMAP
4833D1
D6B9A0
7B6E40
006C00
00C642
03E8AD
0985CC
031010
ENDCHAR
STARTCHAR ampersand
ENCODING 38
SWIDTH 668 0
DWIDTH 6 0
BBX 7 8 0 -1
BITMAP
06A70000
3E0D4000
1E8C1000
09F53000
6C9E7800
AC1CF750
4EEAFA10
00045000
ENDCHAR
STARTCHAR quotesingle
ENCODING 39
SWIDTH 177 0
DWIDTH 2 0
BBX 2 3 0 3
BITMAP
D7
C6
42
ENDCHAR
STARTCHAR parenleft
ENCODING 40
SWIDTH 384 0
DWIDTH 3 0
BBX 4 10 0 -2
BITMAP
0032
06A0
2F20
6D00
8C00
7D00
5F10
0D60
02B1
0001
ENDCHAR
STARTCHAR parenright
ENCODING 41
SWIDTH 375 0
DWIDTH 3 0
BBX 3 10 0 -2
BITMAP
4000
3C10
0A90
06D0
05F0
06E0
09C0
1E50
7700
1000
ENDCHAR
STARTCHAR asterisk
ENCODING 42
SWIDTH 640 0
DWIDTH 6 0
BBX 6 6 0 0
BITMAP
182620
0B8E90
9AFE86
BBFE97
0AAF70
092730
ENDCHAR
STARTCHAR plus
ENCODING 43
SWIDTH 607 0
DWIDTH 5 0
BBX 6 6 0 0
BITMAP
009400
00F600
BCFCA3
89FB82
00E500
008300
ENDCHAR
STARTCHAR comma
ENCODING 44
SWIDTH 226 0
DWIDTH 2 0
BBX 2 3 0 -2
BITMAP
67
AD
44
ENDCHAR
STARTCHAR hyphen
ENCODING 45
SWIDTH 549 0
DWIDTH 5 0
BBX 5 2 0 2
BITMAP
6DCB40
5A9830
ENDCHAR
STARTCHAR period
ENCODING 46
SWIDTH 226 0
DWIDTH 2 0
BBX 2 2 0 -1
BITMAP
88
89
ENDCHAR
STARTCHAR slash
ENCODING 47
SWIDTH 600 0
DWIDTH 5 0
BBX 7 9 -1 -1
BITMAP
00001B30
00008F50
0002EA00
000AE200
004F7000
00CC0000
06F30000
1E900000
07100000
ENDCHAR
STARTCHAR zero
ENCODING 48
SWIDTH 740 0
DWIDTH 7 0
BBX 7 6 0 0
BITMAP
038A7100
4F84BD10
BC002F50
BB002F60
6F308E20
07DDB300
ENDCHAR
STARTCHAR one
ENCODING 49
SWIDTH 503 0
DWIDTH 5 0
BBX 6 8 -1 -1
BITMAP
002520
17CF40
005F40
004F30
003F30
003F20
018F81
034443
ENDCHAR
STARTCHAR two
ENCODING 50
SWIDTH 638 0
DWIDTH 6 0
BBX 6 8 0 -1
BITMAP
515610
8E9AE2
6800E6
4106F3
04CA34
5E4075
EFDEF4
223341
ENDCHAR
STARTCHAR three
ENCODING 51
SWIDTH 620 0
DWIDTH 6 0
BBX 7 8 -1 -1
BITMAP
04143000
0ADADA00
07304F20
0116AD10
0118DE20
08205F50
0BD9DC10
13154000
ENDCHAR
STARTCHAR four
ENCODING 52
SWIDTH 606 0
DWIDTH 5 0
BBX 7 8 -1 -1
BITMAP
00004200
0002E200
001DF200
00BBF220
09B7F930
2889FA30
0003F120
00499710
ENDCHAR
STARTCHAR five
ENCODING 53
SWIDTH 610 0
DWIDTH 6 0
BBX 6 8 0 -1
BITMAP
024681
DEBAD0
B83150
9DCF80
2008F2
7208F1
ADDF80
114200
ENDCHAR
STARTCHAR six
ENCODING 54
SWIDTH 619 0
DWIDTH 6 0
BBX 6 9 0 -1
BITMAP
000010
003170
1CFED0
7F3190
CFCDB1
FB01E6
D900D7
7E36E2
059820
ENDCHAR
STARTCHAR seven
ENCODING 55
SWIDTH 598 0
DWIDTH 5 0
BBX 6 8 0 -1
BITMAP
665432
BCADF9
6408F3
110CC0
001F60
004E10
02BC10
156661
ENDCHAR
STARTCHAR eight
ENCODING 56
SWIDTH 642 0
DWIDTH 6 0
BBX 6 8 0 -1
BITMAP
015400
2E9AD1
8E01F5
5F57F3
7FBCF5
EC00EC
CE23F9
18BB70
ENDCHAR
STARTCHAR nine
ENCODING 57
SWIDTH 610 0
DWIDTH 6 0
BBX 6 8 0 -1
BITMAP
036400
7E7BA0
E902F4
DA04F6
5ECEF5
5348F1
5EBF70
345300
ENDCHAR
STARTCHAR colon
ENCODING 58
SWIDTH 223 0
DWIDTH 2 0
BBX 2 4 0 -1
BITMAP
DB
54
97
98
ENDCHAR
STARTCHAR semicolon
ENCODING 59
SWIDTH 228 0
DWIDTH 2 0
BBX 2 5 0 -2
BITMAP
CB
54
76
BC
53
ENDCHAR
STARTCHAR less
ENCODING 60
SWIDTH 563 0
DWIDTH 5 0
BBX 6 6 0 0
BITMAP
0002A1
018FF3
5DF920
4DB000
018C20
0003A0
ENDCHAR
STARTCHAR equal
ENCODING 61
SWIDTH 531 0
DWIDTH 5 0
BBX 5 5 0 0
BITMAP
221000
FFFFA0
777750
FFFFA0
122320
ENDCHAR
STARTCHAR greater
ENCODING 62
SWIDTH 576 0
DWIDTH 5 0
BBX 6 6 0 0
BITMAP
850000
CFB200
06EF81
006F80
08C300
760000
ENDCHAR
STARTCHAR question
ENCODING 63
SWIDTH 592 0
DWIDTH 5 0
BBX 6 9 0 -1
BITMAP
411000
AAAD60
4006F3
0005F3
0ABE90
0E8100
171000
BF1000
130000
ENDCHAR
STARTCHAR at
ENCODING 64
SWIDTH 792 0
DWIDTH 7 0
BBX 8 7 0 -1
BITMAP
05BAB910
6C6996C0
D4B2A5D4
F3A9D5C5
B7D8D4E1
2C727A50
00353000
ENDCHAR
STARTCHAR A
ENCODING 65
SWIDTH 788 0
DWIDTH 7 0
BBX 11 8 -2 -2
BITMAP
0006DE200000
00004FA00000
0000B9F20000
0004B4FA0000
000BBACF2000
018A002F9000
1689500BF830
0000004A7300
ENDCHAR
STARTCHAR B
ENCODING 66
SWIDTH 774 0
DWIDTH 7 0
BBX 8 8 -1 -2
BITMAP
4CEEDC81
02F802BC
00F924CB
00EEEFC1
00CA04F8
00BB39F7
19DBA730
10000000
ENDCHAR
STARTCHAR C
ENCODING 67
SWIDTH 766 0
DWIDTH 7 0
BBX 7 8 0 -1
BITMAP
00021030
07EDDA90
6F700970
BE000030
CE000000
7F300240
0BE87C70
00476220
ENDCHAR
STARTCHAR D
ENCODING 68
SWIDTH 833 0
DWIDTH 8 0
BBX 9 7 -1 -1
BITMAP
39EFDDB300
007F308E20
006F302F70
005F201F60
004F106F20
01AFBCD500
0332210000
ENDCHAR
STARTCHAR E
ENCODING 69
SWIDTH 781 0
DWIDTH 7 0
BBX 8 8 -1 -1
BITMAP
01234565
27DF7699
009F0418
009F3A02
008FCA03
008E0726
03BE89B6
13333321
ENDCHAR
STARTCHAR F
ENCODING 70
SWIDTH 731 0
DWIDTH 7 0
BBX 8 8 -1 -1
BITMAP
00124562
28EF86C5
00AE0354
00AE4803
009ED800
009D1600
00AD1000
16777200
ENDCHAR
STARTCHAR G
ENCODING 71
SWIDTH 828 0
DWIDTH 7 0
BBX 8 8 0 -1
BITMAP
00022050
08EDDD90
6F700870
BF011140
BF028ED5
7F500CA0
0BE9ACA0
00353010
ENDCHAR
STARTCHAR H
ENCODING 72
SWIDTH 797 0
DWIDTH 7 0
BBX 9 8 -1 -1
BITMAP
0000344420
389848F700
03F704F400
02F704F300
01FEDCF300
01F603F300
00F629F930
28BA500000
ENDCHAR
STARTCHAR I
ENCODING 73
SWIDTH 445 0
DWIDTH 4 0
BBX 6 8 -1 -1
BITMAP
233221
05DF61
00AE00
009D00
009D00
008C00
008C00
05BC72
ENDCHAR
STARTCHAR J
ENCODING 74
SWIDTH 718 0
DWIDTH 6 0
BBX 9 9 -1 -2
BITMAP
0000136610
0037BF8000
00001F7000
00000D9000
00000BB000
49940BA000
06C01E7000
00BBDA1000
0001000000
ENDCHAR
STARTCHAR K
ENCODING 75
SWIDTH 934 0
DWIDTH 8 0
BBX 11 8 -1 -1
BITMAP
167883111100
01CF119FA400
00AE18C30000
009FCF300000
008E19D10000
008D01DB0000
05CE933F9000
0000027BB940
ENDCHAR
STARTCHAR L
ENCODING 76
SWIDTH 712 0
DWIDTH 6 0
BBX 8 8 -1 0
BITMAP
11111100
17DF9300
009F1000
008F1000
007F1003
007F0045
006F11A5
16CCCBA3
ENDCHAR
STARTCHAR M
ENCODING 77
SWIDTH 1033 0
DWIDTH 9 0
BBX 11 8 -1 -1
BITMAP
266510047730
02CF700DF400
00AFE16FF200
008AF8DAF100
0077BF89F000
00672E19F000
029B433CF720
134442000010
ENDCHAR
STARTCHAR N
ENCODING 78
SWIDTH 840 0
DWIDTH 8 0
BBX 10 8 -1 -1
BITMAP
2655267871
03CF918B10
009EF64900
0095DF7900
00942EF800
009503F800
29EE945800
0000000100
ENDCHAR
STARTCHAR O
ENCODING 79
SWIDTH 808 0
DWIDTH 7 0
BBX 8 7 0 -1
BITMAP
01587200
2EC69F50
BE100BE0
CD0009F1
7F401EB0
08ECE910
00010000
ENDCHAR
STARTCHAR P
ENCODING 80
SWIDTH 746 0
DWIDTH 7 0
BBX 8 7 -1 -1
BITMAP
28BAA850
00BC24B9
00BC35C6
00AE8510
00AE0000
04DF6100
14444200
ENDCHAR
STARTCHAR Q
ENCODING 81
SWIDTH 789 0
DWIDTH 7 0
BBX 8 9 0 -3
BITMAP
04ACB500
4F816F60
AE000CC0
AE000CC0
3F716F50
03ADF400
0003F731
0006FC84
00251000
ENDCHAR
STARTCHAR R
ENCODING 82
SWIDTH 826 0
DWIDTH 7 0
BBX 11 9 -1 -3
BITMAP
28BBB9610000
00AD23AB0000
009D46C70000
009F7D800000
009F06F30000
04DF82DC0000
1333325FE820
000000971000
000001000000
ENDCHAR
STARTCHAR S
ENCODING 83
SWIDTH 661 0
DWIDTH 6 0
BBX 6 8 0 -1
BITMAP
000001
2ABB78
CA0189
BFC832
17BFF7
5202EC
7C99E5
303310
ENDCHAR
STARTCHAR T
ENCODING 84
SWIDTH 754 0
DWIDTH 7 0
BBX 7 7 0 -1
BITMAP
9DDFCD50
827F2740
407F1220
006F1000
006F1000
04CF8100
02222200
ENDCHAR
STARTCHAR U
ENCODING 85
SWIDTH 725 0
DWIDTH 7 0
BBX 8 7 -1 -1
BITMAP
28A827D7
04F600E0
04F500D0
05F500C0
03F801B0
009FBC40
00023100
ENDCHAR
STARTCHAR V
ENCODING 86
SWIDTH 786 0
DWIDTH 7 0
BBX 9 8 -1 -1
BITMAP
0003300000
4AE803A950
01EA009400
008F22A000
001F8A3000
0009EA0000
0002E20000
0000400000
ENDCHAR
STARTCHAR W
ENCODING 87
SWIDTH 1026 0
DWIDTH 9 0
BBX 12 7 -1 -1
BITMAP
49AA41159861
03F709605910
00CD1EE1A300
006FACF9B000
000EF4BF6000
0008B03E1000
000240060000
ENDCHAR
STARTCHAR X
ENCODING 88
SWIDTH 860 0
DWIDTH 8 0
BBX 10 7 -1 -1
BITMAP
0456611230
018F53E920
000AEC5000
0004FE2000
005C5EC000
39E807FA20
0000166541
ENDCHAR
STARTCHAR Y
ENCODING 89
SWIDTH 848 0
DWIDTH 8 0
BBX 9 7 -1 -1
BITMAP
4ACB224320
009E30A930
000BD68000
0001DB0000
0000BA0000
0000BC0000
0016998300
ENDCHAR
STARTCHAR Z
ENCODING 90
SWIDTH 685 0
DWIDTH 6 0
BBX 7 6 0 0
BITMAP
46667720
A96AFA00
622ED100
11DE2410
0CF50C00
7CCCCC00
ENDCHAR
STARTCHAR bracketleft
ENCODING 91
SWIDTH 380 0
DWIDTH 3 0
BBX 4 10 0 -2
BITMAP
3654
7F71
6F00
6F00
5E00
5E00
4E00
4E00
4F92
0111
ENDCHAR
STARTCHAR backslash
ENCODING 92
SWIDTH 680 0
DWIDTH 6 0
BBX 6 9 0 -1
BITMAP
590000
8F4000
1DD000
05F600
00AE10
002E90
0007F3
0000CB
000035
ENDCHAR
STARTCHAR bracketright
ENCODING 93
SWIDTH 371 0
DWIDTH 3 0
BBX 4 10 -1 -2
BITMAP
1556
03CE
007E
007E
007D
006D
006C
006C
05CB
0111
ENDCHAR
STARTCHAR asciicircum
ENCODING 94
SWIDTH 671 0
DWIDTH 6 0
BBX 6 6 0 2
BITMAP
006400
01ED00
09FC70
3F92D2
CF203B
350001
ENDCHAR
STARTCHAR underscore
ENCODING 95
SWIDTH 840 0
DWIDTH 8 0
BBX 8 2 0 -1
BITMAP
999AAAA6
DDDEEEE8
ENDCHAR
STARTCHAR grave
ENCODING 96
SWIDTH 707 0
DWIDTH 6 0
BBX 3 3 2 5
BITMAP
0400
2F20
0730
ENDCHAR
STARTCHAR a
ENCODING 97
SWIDTH 572 0
DWIDTH 5 0
BBX 6 6 0 -1
BITMAP
2BAC30
7B0AA0
3A9CA0
BA0C90
4AAFB1
000321
ENDCHAR
STARTCHAR b
ENCODING 98
SWIDTH 723 0
DWIDTH 7 0
BBX 8 9 -1 -2
BITMAP
47960000
15F90000
00F80000
00E80000
00ECAA60
00D817F4
00C504F4
03EBAD60
05431000
ENDCHAR
STARTCHAR c
ENCODING 99
SWIDTH 589 0
DWIDTH 5 0
BBX 6 6 0 -1
BITMAP
015610
2E8AD0
9D03A0
AD0011
4FA7B0
037710
ENDCHAR
STARTCHAR d
ENCODING 100
SWIDTH 713 0
DWIDTH 6 0
BBX 7 10 0 -2
BITMAP
00010000
0004BE40
00005F30
00006F10
02768E00
4F86CC00
9C008B00
6E209900
06BBEA20
00005530
ENDCHAR
STARTCHAR e
ENCODING 101
SWIDTH 593 0
DWIDTH 5 0
BBX 6 6 0 -1
BITMAP
001100
1BDE70
8D14F1
AEBAA2
4E7550
037610
ENDCHAR
STARTCHAR f
ENCODING 102
SWIDTH 507 0
DWIDTH 5 0
BBX 6 13 -1 -4
BITMAP
000693
006D5E
00A91A
00B900
07DD83
04AE42
006F00
004F10
002F30
001F50
390E50
4D5E10
058300
ENDCHAR
STARTCHAR g
ENCODING 103
SWIDTH 606 0
DWIDTH 5 0
BBX 6 11 0 -5
BITMAP
000195
038BBC
5D39B1
B902F3
9B05E1
2EBB40
5FB950
8D56E6
E700AB
9C45E5
047620
ENDCHAR
STARTCHAR h
ENCODING 104
SWIDTH 678 0
DWIDTH 6 0
BBX 8 9 -1 -1
BITMAP
46860000
15F80000
01F70000
00F70000
00FB9710
00E72CA0
00D508C0
05EA18A0
01102894
ENDCHAR
STARTCHAR i
ENCODING 105
SWIDTH 393 0
DWIDTH 4 0
BBX 4 8 0 0
BITMAP
0010
0CD0
0780
6A90
09D0
08C0
07B0
4DE5
ENDCHAR
STARTCHAR j
ENCODING 106
SWIDTH 385 0
DWIDTH 3 0
BBX 5 10 -1 -3
BITMAP
028100
06F500
026300
05DB00
008D00
006E00
005F10
003F20
8A2F10
3CB800
ENDCHAR
STARTCHAR k
ENCODING 107
SWIDTH 749 0
DWIDTH 7 0
BBX 9 9 -1 -1
BITMAP
0132000000
37F9000000
00F94BB710
00F93C4000
00ECE40000
00DB9C0000
00C71D6000
06EC54E510
0100178510
ENDCHAR
STARTCHAR l
ENCODING 108
SWIDTH 369 0
DWIDTH 3 0
BBX 5 9 -1 -1
BITMAP
39B700
00F900
00E800
00E800
00D700
00C700
00C600
00C700
069930
ENDCHAR
STARTCHAR m
ENCODING 109
SWIDTH 990 0
DWIDTH 9 0
BBX 11 5 -1 0
BITMAP
38BBB95A9100
01EA4DD5E600
00C60A70B600
04C91A64DA10
000057610000
ENDCHAR
STARTCHAR n
ENCODING 110
SWIDTH 643 0
DWIDTH 6 0
BBX 8 5 -1 0
BITMAP
38BBA910
01EA4E70
00C60A80
04C91A60
00005761
ENDCHAR
STARTCHAR o
ENCODING 111
SWIDTH 705 0
DWIDTH 6 0
BBX 7 5 0 0
BITMAP
00341000
4E97D800
DA004F30
CB006F20
2BCAC500
ENDCHAR
STARTCHAR p
ENCODING 112
SWIDTH 723 0
DWIDTH 7 0
BBX 8 8 -1 -3
BITMAP
4BE94300
00FC6BC1
00E800E5
00D904F3
00CCBB50
00B80000
05DD5000
12211000
ENDCHAR
STARTCHAR q
ENCODING 113
SWIDTH 682 0
DWIDTH 6 0
BBX 7 8 0 -2
BITMAP
00001110
0477FC50
8D55F700
D700F600
9D45F500
0698F400
0001F300
0029DA40
ENDCHAR
STARTCHAR r
ENCODING 114
SWIDTH 595 0
DWIDTH 5 0
BBX 7 7 -1 -1
BITMAP
00140200
18EEDF80
009E1630
008C0000
006C0000
05CDA300
01000000
ENDCHAR
STARTCHAR s
ENCODING 115
SWIDTH 533 0
DWIDTH 5 0
BBX 5 7 0 -1
BITMAP
023010
7B9C70
BC4360
3CFD40
833CB0
9BBC40
100000
ENDCHAR
STARTCHAR t
ENCODING 116
SWIDTH 422 0
DWIDTH 4 0
BBX 5 9 -1 -1
BITMAP
004800
01B600
1DFDB0
03F310
04F200
05F000
06E050
03FD70
002300
ENDCHAR
STARTCHAR u
ENCODING 117
SWIDTH 614 0
DWIDTH 6 0
BBX 7 6 -1 -1
BITMAP
36614420
08E04F50
07D01F20
06D02F00
01DCCE50
00011520
ENDCHAR
STARTCHAR v
ENCODING 118
SWIDTH 639 0
DWIDTH 6 0
BBX 8 6 -1 -1
BITMAP
48A73210
06F34E93
00CA3A00
003FC300
000AA000
00023000
ENDCHAR
STARTCHAR w
ENCODING 119
SWIDTH 805 0
DWIDTH 7 0
BBX 10 5 -1 0
BITMAP
5BE6326C71
03F5995900
00BCEEC200
004F5DA000
0009063000
ENDCHAR
STARTCHAR x
ENCODING 120
SWIDTH 717 0
DWIDTH 6 0
BBX 9 6 -1 -1
BITMAP
27BA655400
009E5D6000
000BF30000
004CCB0000
16984FA510
0000432000
ENDCHAR
STARTCHAR y
ENCODING 121
SWIDTH 655 0
DWIDTH 6 0
BBX 7 9 -1 -4
BITMAP
28325420
06F54F90
09F10E80
09F31E80
02ACBF70
00000F60
02401F50
08A06E10
02BCD500
ENDCHAR
STARTCHAR z
ENCODING 122
SWIDTH 549 0
DWIDTH 5 0
BBX 6 6 0 -1
BITMAP
79AAA1
A46F60
52EA10
1CD180
8EDBC0
000120
ENDCHAR
STARTCHAR braceleft
ENCODING 123
SWIDTH 708 0
DWIDTH 6 0
BBX 6 10 0 -2
BITMAP
005552
00BD40
00BA00
00BA00
15DA00
03C900
009900
009900
008E60
000110
ENDCHAR
STARTCHAR bar
ENCODING 124
SWIDTH 304 0
DWIDTH 3 0
BBX 3 9 0 -1
BITMAP
3810
5F20
5F10
5F10
5F10
5F10
4F00
4F00
3A00
ENDCHAR
STARTCHAR braceright
ENCODING 125
SWIDTH 517 0
DWIDTH 5 0
BBX 5 10 0 -2
BITMAP
456200
17F600
00F600
00F500
00FA30
00F810
00E400
00E400
29F300
111000
ENDCHAR
STARTCHAR asciitilde
ENCODING 126
SWIDTH 466 0
DWIDTH 4 0
BBX 5 2 0 2
BITMAP
895620
CAEE20
ENDCHAR
STARTCHAR uni00A0
ENCODING 160
SWIDTH 320 0
DWIDTH 3 0
BBX 1 1 0 0
BITMAP
00
ENDCHAR
STARTCHAR exclamdown
ENCODING 161
SWIDTH 305 0
DWIDTH 3 0
BBX 3 8 0 -3
BITMAP
0B80
0740
0E30
2F20
5F20
8F10
AF00
9B00
ENDCHAR
STARTCHAR cent
ENCODING 162
SWIDTH 417 0
DWIDTH 4 0
BBX 5 8 -1 -1
BITMAP
004400
008900
05BA60
0E2370
1F1010
0AA660
009A00
008900
ENDCHAR
STARTCHAR sterling
ENCODING 163
SWIDTH 658 0
DWIDTH 6 0
BBX 6 8 0 -1
BITMAP
000001
04CD89
0E8099
DFDB36
7BC723
8CDA38
1DDBBD
134455
ENDCHAR
STARTCHAR currency
ENCODING 164
SWIDTH 358 0
DWIDTH 3 0
BBX 4 4 0 1
BITMAP
8691
89C0
ACD1
2020
ENDCHAR
STARTCHAR yen
ENCODING 165
SWIDTH 796 0
DWIDTH 7 0
BBX 9 6 -1 0
BITMAP
49C4155510
01BA078100
001CB70000
005BE81000
004AFA1000
0049D83000
ENDCHAR
STARTCHAR brokenbar
ENCODING 166
SWIDTH 304 0
DWIDTH 3 0
BBX 3 9 0 -1
BITMAP
3810
5F20
5F10
3A10
0000
3A00
4F00
4F00
3A00
ENDCHAR
STARTCHAR section
ENCODING 167
SWIDTH 646 0
DWIDTH 6 0
BBX 6 11 0 -3
BITMAP
19CA32
7A03D1
8E6131
1EFE70
6B4BF5
8D41E6
2DFFC0
217DF4
7801E6
79CCB1
100000
ENDCHAR
STARTCHAR dieresis
ENCODING 168
SWIDTH 708 0
DWIDTH 6 0
BBX 4 2 1 7
BITMAP
0533
1643
ENDCHAR
STARTCHAR copyright
ENCODING 169
SWIDTH 700 0
DWIDTH 6 0
BBX 7 6 0 0
BITMAP
1ACAB300
A7885D10
E4822A30
D4B43C20
5B679900
03884000
ENDCHAR
STARTCHAR ordfeminine
ENCODING 170
SWIDTH 399 0
DWIDTH 4 0
BBX 4 5 0 3
BITMAP
0100
A9C0
A8E2
F8F0
1484
ENDCHAR
STARTCHAR guillemotleft
ENCODING 171
SWIDTH 424 0
DWIDTH 4 0
BBX 4 6 0 -1
BITMAP
0202
1C49
B8E2
99C4
0B29
0101
ENDCHAR
STARTCHAR logicalnot
ENCODING 172
SWIDTH 541 0
DWIDTH 5 0
BBX 6 5 0 0
BITMAP
400040
CDCB90
966990
100390
000361
ENDCHAR
STARTCHAR sfthyphen
ENCODING 173
SWIDTH 530 0
DWIDTH 5 0
BBX 5 2 0 2
BITMAP
DDCB80
A99860
ENDCHAR
STARTCHAR registered
ENCODING 174
SWIDTH 700 0
DWIDTH 6 0
BBX 7 6 0 0
BITMAP
19CBA200
A8667D00
E0885B30
D1650C30
6A658A00
04995000
ENDCHAR
STARTCHAR macron
ENCODING 175
SWIDTH 705 0
DWIDTH 6 0
BBX 3 2 2 6
BITMAP
7A80
5760
ENDCHAR
STARTCHAR degree
ENCODING 176
SWIDTH 364 0
DWIDTH 3 0
BBX 3 3 0 4
BITMAP
0520
79B0
4C70
ENDCHAR
STARTCHAR plusminus
ENCODING 177
SWIDTH 607 0
DWIDTH 5 0
BBX 6 6 0 0
BITMAP
00A400
67F951
BEFED3
00E400
68A751
AEDDC2
ENDCHAR
STARTCHAR twosuperior
ENCODING 178
SWIDTH 440 0
DWIDTH 4 0
BBX 4 5 0 3
BITMAP
7BC4
736B
35C7
9D5A
89A7
ENDCHAR
STARTCHAR threesuperior
ENCODING 179
SWIDTH 442 0
DWIDTH 4 0
BBX 4 5 0 3
BITMAP
6782
868A
27D9
728C
8BC5
ENDCHAR
STARTCHAR acute
ENCODING 180
SWIDTH 694 0
DWIDTH 6 0
BBX 3 3 2 6
BITMAP
0910
3D00
1300
ENDCHAR
STARTCHAR mu
ENCODING 181
SWIDTH 1000 0
DWIDTH 9 0
BBX 7 8 0 -3
BITMAP
46524410
0BB07F20
09A04E00
09A05C00
08FCDC30
08A12410
08900000
02300000
ENDCHAR
STARTCHAR paragraph
ENCODING 182
SWIDTH 782 0
DWIDTH 7 0
BBX 9 7 -1 -1
BITMAP
039CDDC610
1F54C96000
09B9DB6000
0017CC5000
0005AA5000
0018EFC400
0144322100
ENDCHAR
STARTCHAR periodcentered
ENCODING 183
SWIDTH 226 0
DWIDTH 2 0
BBX 2 3 0 2
BITMAP
11
CD
33
ENDCHAR
STARTCHAR cedilla
ENCODING 184
SWIDTH 780 0
DWIDTH 7 0
BBX 3 4 2 -2
BITMAP
0100
3C10
2880
3920
ENDCHAR
STARTCHAR onesuperior
ENCODING 185
SWIDTH 390 0
DWIDTH 4 0
BBX 4 5 0 3
BITMAP
4870
1AA0
0890
0790
2AB1
ENDCHAR
STARTCHAR ordmasculine
ENCODING 186
SWIDTH 449 0
DWIDTH 4 0
BBX 6 4 -1 3
BITMAP
07AB60
1F01F1
0B89A0
002200
ENDCHAR
STARTCHAR guillemotright
ENCODING 187
SWIDTH 415 0
DWIDTH 4 0
BBX 4 6 0 -1
BITMAP
2020
B3C0
5C98
6AB6
A2A0
1010
ENDCHAR
STARTCHAR onequarter
ENCODING 188
SWIDTH 918 0
DWIDTH 8 0
BBX 8 10 0 -2
BITMAP
487000A3
1AA005E1
08901D60
07908B01
2AB3E293
000B87F4
004D5DEA
00D466EA
06A016B7
00100000
ENDCHAR
STARTCHAR onehalf
ENCODING 189
SWIDTH 1007 0
DWIDTH 9 0
BBX 9 10 0 -2
BITMAP
487000A300
1AA005E100
08901D6000
07908B0000
2AB3E52400
000B87CAB0
004D0527C0
00D402B980
06A00BEBC0
0010022330
ENDCHAR
STARTCHAR threequarters
ENCODING 190
SWIDTH 936 0
DWIDTH 8 0
BBX 9 10 0 -2
BITMAP
6782008500
868A03F300
27D90B8000
728C5D1200
8BC6D47600
0008A5F610
002E4DDC10
00B656CB00
03C005B810
0010000000
ENDCHAR
STARTCHAR questiondown
ENCODING 191
SWIDTH 568 0
DWIDTH 5 0
BBX 6 9 0 -3
BITMAP
000110
000DE0
000630
004F20
5DDD00
E80000
E80031
5EA8C0
002260
ENDCHAR
STARTCHAR Agrave
ENCODING 192
SWIDTH 788 0
DWIDTH 7 0
BBX 11 12 -2 -2
BITMAP
000013000000
00007C000000
000019000000
000000000000
0006DE200000
00004FA00000
0000B9F20000
0004B4FA0000
000BBACF2000
018A002F9000
1689500BF830
0000004A7300
ENDCHAR
STARTCHAR Aacute
ENCODING 193
SWIDTH 788 0
DWIDTH 7 0
BBX 11 11 -2 -2
BITMAP
000007300000
00000E300000
000003000000
0006DE200000
00004FA00000
0000B9F20000
0004B4FA0000
000BBACF2000
018A002F9000
1689500BF830
0000004A7300
ENDCHAR
STARTCHAR Acircumflex
ENCODING 194
SWIDTH 788 0
DWIDTH 7 0
BBX 11 11 -2 -2
BITMAP
000002000000
00003F500000
000084900000
0006DE200000
00004FA00000
0000B9F20000
0004B4FA0000
000BBACF2000
018A002F9000
1689500BF830
0000004A7300
ENDCHAR
STARTCHAR Atilde
ENCODING 195
SWIDTH 788 0
DWIDTH 7 0
BBX 11 10 -2 -2
BITMAP
00008BA00000
000045700000
0006DE200000
00004FA00000
0000B9F20000
0004B4FA0000
000BBACF2000
018A002F9000
1689500BF830
0000004A7300
ENDCHAR
STARTCHAR Adieresis
ENCODING 196
SWIDTH 788 0
DWIDTH 7 0
BBX 11 10 -2 -2
BITMAP
000052500000
000062600000
0006DE200000
00004FA00000
0000B9F20000
0004B4FA0000
000BBACF2000
018A002F9000
1689500BF830
0000004A7300
ENDCHAR
STARTCHAR Aring
ENCODING 197
SWIDTH 788 0
DWIDTH 7 0
BBX 11 10 -2 -2
BITMAP
000019200000
00004A700000
0006DF300000
00004FA00000
0000B9F20000
0004B4F90000
000BBACF2000
018A002F9000
1689500BF830
0000004A7300
ENDCHAR
STARTCHAR AE
ENCODING 198
SWIDTH 1019 0
DWIDTH 9 0
BBX 11 8 -2 -1
BITMAP
000234556760
0006EFFB77C0
0000A9F63080
0004B3F7B010
001D66FDE030
008A99F56080
17D128FA9A90
567633333310
ENDCHAR
STARTCHAR Ccedilla
ENCODING 199
SWIDTH 766 0
DWIDTH 7 0
BBX 7 11 0 -4
BITMAP
00021030
07EDDA90
6F700970
BE000030
BE000000
7F300240
1BE87C70
005C7220
004B4000
005C5000
00010000
ENDCHAR
STARTCHAR Egrave
ENCODING 200
SWIDTH 781 0
DWIDTH 7 0
BBX 8 11 -1 -1
BITMAP
00014000
0004E000
00008100
01234565
27DF7699
009F0418
009F3A02
008FCA03
008E0726
03BE89B6
13333321
ENDCHAR
STARTCHAR Eacute
ENCODING 201
SWIDTH 781 0
DWIDTH 7 0
BBX 8 10 -1 -1
BITMAP
00005500
0000B600
01237565
27DF7699
009F0418
009F3A02
008FCA03
008E0726
03BE89B6
13333321
ENDCHAR
STARTCHAR Ecircumflex
ENCODING 202
SWIDTH 781 0
DWIDTH 7 0
BBX 8 11 -1 -1
BITMAP
00002000
0006F300
00194800
01234565
27DF7699
009F0418
009F3A02
008FCA03
008E0726
03BE89B6
13333321
ENDCHAR
STARTCHAR Edieresis
ENCODING 203
SWIDTH 781 0
DWIDTH 7 0
BBX 8 10 -1 -1
BITMAP
00052500
00062600
01234565
27DF7699
009F0418
009F3A02
008FCA03
008E0726
03BE89B6
13333321
ENDCHAR
STARTCHAR Igrave
ENCODING 204
SWIDTH 445 0
DWIDTH 4 0
BBX 6 11 -1 -1
BITMAP
003100
00C700
004600
233221
05DF61
00AE00
009D00
009D00
008C00
008C00
05BC72
ENDCHAR
STARTCHAR Iacute
ENCODING 205
SWIDTH 445 0
DWIDTH 4 0
BBX 6 10 -1 -1
BITMAP
000820
003D10
233521
05DF61
00AE00
009D00
009D00
008C00
008C00
05BC72
ENDCHAR
STARTCHAR Icircumflex
ENCODING 206
SWIDTH 445 0
DWIDTH 4 0
BBX 6 11 -1 -1
BITMAP
001200
00AD10
038560
233221
05DF61
00AE00
009D00
009D00
008C00
008C00
05BC72
ENDCHAR
STARTCHAR Idieresis
ENCODING 207
SWIDTH 445 0
DWIDTH 4 0
BBX 6 9 -1 -1
BITMAP
015420
249751
05DF61
00AE00
009D00
009D00
008C00
008C00
05BC72
ENDCHAR
STARTCHAR Eth
ENCODING 208
SWIDTH 1000 0
DWIDTH 9 0
BBX 9 7 0 -1
BITMAP
39EFEDB400
007F407F30
169F730F90
1BBFB60E80
003F204F40
019FBBD600
0332210000
ENDCHAR
STARTCHAR Ntilde
ENCODING 209
SWIDTH 840 0
DWIDTH 8 0
BBX 10 10 -1 -1
BITMAP
0006C92000
0003471000
2655267871
03CF918B10
009EF64900
0095DF7900
00942EF800
009503F800
29EE945800
0000000100
ENDCHAR
STARTCHAR Ograve
ENCODING 210
SWIDTH 808 0
DWIDTH 7 0
BBX 8 10 0 -1
BITMAP
00040000
001E5000
00055000
01587200
2EC69F50
BE100BE0
CD0009F1
7F401EB0
08ECE910
00010000
ENDCHAR
STARTCHAR Oacute
ENCODING 211
SWIDTH 808 0
DWIDTH 7 0
BBX 8 9 0 -1
BITMAP
00046000
000A7000
015A7200
2EC69F50
BE100BE0
CD0009F1
7F401EB0
08ECE910
00010000
ENDCHAR
STARTCHAR Ocircumflex
ENCODING 212
SWIDTH 808 0
DWIDTH 7 0
BBX 8 10 0 -1
BITMAP
00020000
002E7000
00849100
01587200
2EC69F50
BE100BE0
CD0009F1
7F401EB0
08ECE910
00010000
ENDCHAR
STARTCHAR Otilde
ENCODING 213
SWIDTH 808 0
DWIDTH 7 0
BBX 8 9 0 -1
BITMAP
006C9200
00347100
01587200
2EC69F50
BE100BE0
CD0009F1
7F401EB0
08ECE910
00010000
ENDCHAR
STARTCHAR Odieresis
ENCODING 214
SWIDTH 808 0
DWIDTH 7 0
BBX 8 9 0 -1
BITMAP
00426000
00527000
01587200
2EC69F50
BE100BE0
CD0009F1
7F401EB0
08ECE910
00010000
ENDCHAR
STARTCHAR multiply
ENCODING 215
SWIDTH 556 0
DWIDTH 5 0
BBX 5 6 0 0
BITMAP
130210
AE5DA0
1CFD20
1DFD10
9C2B90
110010
ENDCHAR
STARTCHAR Oslash
ENCODING 216
SWIDTH 808 0
DWIDTH 7 0
BBX 8 8 0 -1
BITMAP
00000400
0158AF20
2EC7FF60
BE18DBE0
CD2F49F1
7FC91EB0
0AFDE910
08610000
ENDCHAR
STARTCHAR Ugrave
ENCODING 217
SWIDTH 725 0
DWIDTH 7 0
BBX 8 10 -1 -1
BITMAP
00014000
0006D000
00009100
28A827D7
04F600E0
04F500D0
05F500C0
03F801B0
009FBC40
00023100
ENDCHAR
STARTCHAR Uacute
ENCODING 218
SWIDTH 725 0
DWIDTH 7 0
BBX 8 10 -1 -1
BITMAP
00008200
0002E100
00003000
28A827D7
04F600E0
04F500D0
05F500C0
03F801B0
009FBC40
00023100
ENDCHAR
STARTCHAR Ucircumflex
ENCODING 219
SWIDTH 725 0
DWIDTH 7 0
BBX 8 10 -1 -1
BITMAP
00002000
0006F300
00194800
28A827D7
04F600E0
04F500D0
05F500C0
03F801B0
009FBC40
00023100
ENDCHAR
STARTCHAR Udieresis
ENCODING 220
SWIDTH 725 0
DWIDTH 7 0
BBX 8 9 -1 -1
BITMAP
00052500
00062600
28A827D7
04F600E0
04F500D0
05F500C0
03F801B0
009FBC40
00023100
ENDCHAR
STARTCHAR Yacute
ENCODING 221
SWIDTH 848 0
DWIDTH 8 0
BBX 9 10 -1 -1
BITMAP
0000073000
00001E2000
0000030000
4ACB224320
009E30A930
000BD68000
0001DB0000
0000BA0000
0000BC0000
0016998300
ENDCHAR
STARTCHAR Thorn
ENCODING 222
SWIDTH 745 0
DWIDTH 7 0
BBX 8 7 -1 -1
BITMAP
28BA7100
00BD8630
00BC46C8
00AB13B8
00AFA730
04DE6100
14444200
ENDCHAR
STARTCHAR germandbls
ENCODING 223
SWIDTH 986 0
DWIDTH 9 0
BBX 10 13 -1 -4
BITMAP
0000430000
001CAAB000
006C00B600
009A00A700
07CB02E300
04AD09B000
006F0BB000
004F14ED81
002F3628EC
000F5AC6BB
490F542540
4D5E100000
0582000000
ENDCHAR
STARTCHAR agrave
ENCODING 224
SWIDTH 572 0
DWIDTH 5 0
BBX 6 9 0 -1
BITMAP
001400
006D00
000910
2BAC30
7B0AA0
3A9CA0
BA0C90
4AAFB1
000321
ENDCHAR
STARTCHAR aacute
ENCODING 225
SWIDTH 572 0
DWIDTH 5 0
BBX 6 9 0 -1
BITMAP
001900
006B00
001200
2BAC30
7B0AA0
3A9CA0
BA0C90
4AAFB1
000321
ENDCHAR
STARTCHAR acircumflex
ENCODING 226
SWIDTH 572 0
DWIDTH 5 0
BBX 6 10 0 -1
BITMAP
001100
00CB00
056740
000000
2BAC30
7B0AA0
3A9CA0
BA0C90
4AAFB1
000321
ENDCHAR
STARTCHAR atilde
ENCODING 227
SWIDTH 572 0
DWIDTH 5 0
BBX 6 8 0 -1
BITMAP
04C950
034720
2BAC30
7B0AA0
3A9CA0
BA0C90
4AAFB1
000321
ENDCHAR
STARTCHAR adieresis
ENCODING 228
SWIDTH 572 0
DWIDTH 5 0
BBX 6 8 0 -1
BITMAP
033600
043700
2BAC30
7B0AA0
3A9CA0
BA0C90
4AAFB1
000321
ENDCHAR
STARTCHAR aring
ENCODING 229
SWIDTH 572 0
DWIDTH 5 0
BBX 6 8 0 -1
BITMAP
007700
00AA00
2BBD30
7B0AA0
3A9CA0
BA0C90
4AAFB1
000321
ENDCHAR
STARTCHAR ae
ENCODING 230
SWIDTH 1022 0
DWIDTH 9 0
BBX 10 6 0 -1
BITMAP
3BBB169810
A90CED3AB0
5A9EFDABD1
E70EDD4340
5BBF969600
0013210000
ENDCHAR
STARTCHAR ccedilla
ENCODING 231
SWIDTH 589 0
DWIDTH 5 0
BBX 6 9 0 -4
BITMAP
015610
2E8AD0
9D03A0
AD0011
4FA7B0
03D710
019900
01BA00
001000
ENDCHAR
STARTCHAR egrave
ENCODING 232
SWIDTH 593 0
DWIDTH 5 0
BBX 6 9 0 -1
BITMAP
001300
007C00
001900
001100
1BDE70
8D14F1
AEBAA2
4E7550
037610
ENDCHAR
STARTCHAR eacute
ENCODING 233
SWIDTH 593 0
DWIDTH 5 0
BBX 6 8 0 -1
BITMAP
002800
007A00
003200
1BDE70
8D14F1
AEBAA2
4E7550
037610
ENDCHAR
STARTCHAR ecircumflex
ENCODING 234
SWIDTH 593 0
DWIDTH 5 0
BBX 6 9 0 -1
BITMAP
001100
00CB00
056740
001100
1BDE70
8D14F1
AEBAA2
4E7550
037610
ENDCHAR
STARTCHAR edieresis
ENCODING 235
SWIDTH 593 0
DWIDTH 5 0
BBX 6 7 0 -1
BITMAP
014420
027620
1BDE70
8D14F1
AEBAA2
4E7550
037610
ENDCHAR
STARTCHAR igrave
ENCODING 236
SWIDTH 393 0
DWIDTH 4 0
BBX 4 8 0 0
BITMAP
0310
0C70
0460
6A90
09D0
08C0
07B0
4DE5
ENDCHAR
STARTCHAR iacute
ENCODING 237
SWIDTH 393 0
DWIDTH 4 0
BBX 4 8 0 0
BITMAP
0091
04C0
0120
6A90
09D0
08C0
07B0
4DE5
ENDCHAR
STARTCHAR icircumflex
ENCODING 238
SWIDTH 393 0
DWIDTH 4 0
BBX 4 8 0 0
BITMAP
0110
0BC0
4765
6A90
09D0
08C0
07B0
4DE5
ENDCHAR
STARTCHAR idieresis
ENCODING 239
SWIDTH 393 0
DWIDTH 4 0
BBX 4 7 0 0
BITMAP
0633
0734
6A90
09D0
08C0
07B0
4DE5
ENDCHAR
STARTCHAR eth
ENCODING 240
SWIDTH 672 0
DWIDTH 6 0
BBX 7 9 -1 -1
BITMAP
00100000
00284B60
0009F800
005B5E20
00377DA0
09D55DE0
1F6007F0
0DA00AA0
019BB810
ENDCHAR
STARTCHAR ntilde
ENCODING 241
SWIDTH 643 0
DWIDTH 6 0
BBX 8 7 -1 0
BITMAP
001CA700
00147400
38BBA910
01EA4E70
00C60A80
04C91A60
00005761
ENDCHAR
STARTCHAR ograve
ENCODING 242
SWIDTH 705 0
DWIDTH 6 0
BBX 7 8 0 0
BITMAP
00140000
004E0000
00081000
00341000
4E97D800
DA004F30
CB006F20
2BCAC500
ENDCHAR
STARTCHAR oacute
ENCODING 243
SWIDTH 705 0
DWIDTH 6 0
BBX 7 7 0 0
BITMAP
00091000
003D0000
00461000
4E97D800
DA004F30
CB006F20
2BCAC500
ENDCHAR
STARTCHAR ocircumflex
ENCODING 244
SWIDTH 705 0
DWIDTH 6 0
BBX 7 8 0 0
BITMAP
00020000
007E2000
01948000
00341000
4E97D800
DA004F30
CB006F20
2BCAC500
ENDCHAR
STARTCHAR otilde
ENCODING 245
SWIDTH 705 0
DWIDTH 6 0
BBX 7 7 0 0
BITMAP
00CA8000
00565000
00341000
4E97D800
DA004F30
CB006F20
2BCAC500
ENDCHAR
STARTCHAR odieresis
ENCODING 246
SWIDTH 705 0
DWIDTH 6 0
BBX 7 7 0 0
BITMAP
00624000
00725000
00341000
4E97D800
DA004F30
CB006F20
2BCAC500
ENDCHAR
STARTCHAR divide
ENCODING 247
SWIDTH 504 0
DWIDTH 5 0
BBX 5 7 0 -1
BITMAP
001000
06F300
347100
EFFF60
136000
07F200
001000
ENDCHAR
STARTCHAR oslash
ENCODING 248
SWIDTH 705 0
DWIDTH 6 0
BBX 7 7 0 -1
BITMAP
00003000
0034E500
4E9CF800
DA3F7F30
BBB86F20
2CFBC500
0B500000
ENDCHAR
STARTCHAR ugrave
ENCODING 249
SWIDTH 614 0
DWIDTH 6 0
BBX 7 9 -1 -1
BITMAP
00040000
001E4000
00064000
36614420
08E04F50
07D01F20
06D02F00
01DCCE50
00011520
ENDCHAR
STARTCHAR uacute
ENCODING 250
SWIDTH 614 0
DWIDTH 6 0
BBX 7 8 -1 -1
BITMAP
00037000
00098000
36645420
08E04F50
07D01F20
06D02F00
01DCCE50
00011520
ENDCHAR
STARTCHAR ucircumflex
ENCODING 251
SWIDTH 614 0
DWIDTH 6 0
BBX 7 9 -1 -1
BITMAP
00020000
001D9000
00658300
36614420
08E04F50
07D01F20
06D02F00
01DCCE50
00011520
ENDCHAR
STARTCHAR udieresis
ENCODING 252
SWIDTH 614 0
DWIDTH 6 0
BBX 7 8 -1 -1
BITMAP
00336000
00437000
36614420
08E04F50
07D01F20
06D02F00
01DCCE50
00011520
ENDCHAR
STARTCHAR yacute
ENCODING 253
SWIDTH 655 0
DWIDTH 6 0
BBX 7 12 -1 -4
BITMAP
00037000
00098000
00021000
28325420
06F54F90
09F10E80
09F31E80
02ACBF70
00000F60
02401F50
08A06E10
02BCD500
ENDCHAR
STARTCHAR thorn
ENCODING 254
SWIDTH 734 0
DWIDTH 7 0
BBX 8 11 -1 -4
BITMAP
23320000
16EC0000
00BC0000
00AC0000
00AEBC91
009C01D8
009C00B9
009EABD2
008C2200
008D0000
16A97100
ENDCHAR
STARTCHAR ydieresis
ENCODING 255
SWIDTH 655 0
DWIDTH 6 0
BBX 7 11 -1 -4
BITMAP
00336000
00437000
28325420
06F54F90
09F10E80
09F31E80
02ACBF70
00000F60
02401F50
08A06E10
02BCD500
ENDCHAR
STARTCHAR dotlessi
ENCODING 305
SWIDTH 393 0
DWIDTH 4 0
BBX 4 5 0 0
BITMAP
6A90
09D0
08C0
07B0
4DE5
ENDCHAR
STARTCHAR Lslash
ENCODING 321
SWIDTH 713 0
DWIDTH 6 0
BBX 8 8 -1 0
BITMAP
11111100
17DF9300
009F2000
008FE400
07EF6003
069F0045
006F11A5
16CCCBA3
ENDCHAR
STARTCHAR lslash
ENCODING 322
SWIDTH 365 0
DWIDTH 3 0
BBX 5 9 -1 -1
BITMAP
39B600
01F800
00F720
01FF90
4FF800
04D600
00C500
00C600
079920
ENDCHAR
STARTCHAR OE
ENCODING 338
SWIDTH 1195 0
DWIDTH 11 0
BBX 11 8 0 -1
BITMAP
000012345630
00038EF76B50
2BCCBCF04350
BB00BFF48010
D8009FFD8120
7D34EDE06520
04988CE89C20
000233333200
ENDCHAR
STARTCHAR oe
ENCODING 339
SWIDTH 1087 0
DWIDTH 10 0
BBX 10 6 0 -1
BITMAP
0011000000
3CABB7DD90
C800DF31D7
C800CFBBB7
3CABAF8461
0010027720
ENDCHAR
STARTCHAR Scaron
ENCODING 352
SWIDTH 661 0
DWIDTH 6 0
BBX 6 11 0 -1
BITMAP
021020
03DD30
005600
000001
2ABB78
CA0189
BFC832
17BFF7
5202EC
7C99E5
303310
ENDCHAR
STARTCHAR scaron
ENCODING 353
SWIDTH 533 0
DWIDTH 5 0
BBX 5 10 0 -1
BITMAP
030200
09CB00
009100
023010
7B9C70
BC4360
3CFD40
833CB0
9BBC40
100000
ENDCHAR
STARTCHAR Ydieresis
ENCODING 376
SWIDTH 848 0
DWIDTH 8 0
BBX 9 9 -1 -1
BITMAP
0001542000
0001652000
4ACB224320
009E30A930
000BD68000
0001DB0000
0000BA0000
0000BC0000
0016998300
ENDCHAR
STARTCHAR Zcaron
ENCODING 381
SWIDTH 685 0
DWIDTH 6 0
BBX 7 9 0 0
BITMAP
01203000
01CC7000
00290000
46667720
A96AFA00
622ED100
11DE2410
0CF50C00
7CCCCC00
ENDCHAR
STARTCHAR zcaron
ENCODING 382
SWIDTH 549 0
DWIDTH 5 0
BBX 6 9 0 -1
BITMAP
030200
07CC10
009200
79AAA1
A46F60
52EA10
1CD180
8EDBC0
000120
ENDCHAR
STARTCHAR circumflex
ENCODING 710
SWIDTH 714 0
DWIDTH 6 0
BBX 3 3 2 6
BITMAP
0200
3F50
8490
ENDCHAR
STARTCHAR caron
ENCODING 711
SWIDTH 714 0
DWIDTH 6 0
BBX 3 3 2 6
BITMAP
3020
9CB0
0910
ENDCHAR
STARTCHAR breve
ENCODING 728
SWIDTH 715 0
DWIDTH 6 0
BBX 3 3 2 6
BITMAP
3030
9CA0
0410
ENDCHAR
STARTCHAR dotaccent
ENCODING 729
SWIDTH 708 0
DWIDTH 6 0
BBX 2 2 2 7
BITMAP
24
25
ENDCHAR
STARTCHAR ring
ENCODING 730
SWIDTH 704 0
DWIDTH 6 0
BBX 3 3 2 6
BITMAP
0400
6A60
1710
ENDCHAR
STARTCHAR ogonek
ENCODING 731
SWIDTH 988 0
DWIDTH 9 0
BBX 4 4 2 -2
BITMAP
0200
1C00
1DD9
0010
ENDCHAR
STARTCHAR tilde
ENCODING 732
SWIDTH 707 0
DWIDTH 6 0
BBX 3 2 2 6
BITMAP
AB90
4660
ENDCHAR
STARTCHAR hungarumlaut
ENCODING 733
SWIDTH 671 0
DWIDTH 6 0
BBX 4 3 1 6
BITMAP
0867
1EB8
0321
ENDCHAR
STARTCHAR endash
ENCODING 8211
SWIDTH 576 0
DWIDTH 5 0
BBX 5 2 0 2
BITMAP
7FFF90
244430
ENDCHAR
STARTCHAR emdash
ENCODING 8212
SWIDTH 993 0
DWIDTH 9 0
BBX 9 2 0 2
BITMAP
6DDDEEEE50
2555566620
ENDCHAR
STARTCHAR quoteleft
ENCODING 8216
SWIDTH 261 0
DWIDTH 2 0
BBX 3 4 0 3
BITMAP
0500
5F10
9B00
0100
ENDCHAR
STARTCHAR quoteright
ENCODING 8217
SWIDTH 301 0
DWIDTH 3 0
BBX 3 4 0 3
BITMAP
0500
5F30
8A00
0100
ENDCHAR
STARTCHAR quotesinglbase
ENCODING 8218
SWIDTH 332 0
DWIDTH 3 0
BBX 3 3 0 -1
BITMAP
2C30
7E10
4500
ENDCHAR
STARTCHAR quotedblleft
ENCODING 8220
SWIDTH 477 0
DWIDTH 4 0
BBX 5 4 0 3
BITMAP
051500
5F7E10
9BAA00
010100
ENDCHAR
STARTCHAR quotedblright
ENCODING 8221
SWIDTH 477 0
DWIDTH 4 0
BBX 5 3 0 4
BITMAP
232300
7E9E10
B8C700
ENDCHAR
STARTCHAR quotedblbase
ENCODING 8222
SWIDTH 477 0
DWIDTH 4 0
BBX 5 3 0 -1
BITMAP
5B7B10
ACBB00
636300
ENDCHAR
STARTCHAR dagger
ENCODING 8224
SWIDTH 487 0
DWIDTH 4 0
BBX 5 11 0 -3
BITMAP
038000
07F000
49F300
CFFE20
06E000
05E000
05D000
05D000
05D000
04C000
038000
ENDCHAR
STARTCHAR daggerdbl
ENCODING 8225
SWIDTH 497 0
DWIDTH 4 0
BBX 5 11 0 -3
BITMAP
038000
07F000
49F300
CFFE20
06E300
CFFF30
17E310
05D000
05D000
04C000
038000
ENDCHAR
STARTCHAR bullet
ENCODING 8226
SWIDTH 275 0
DWIDTH 2 0
BBX 3 3 0 2
BITMAP
5910
EF60
7B20
ENDCHAR
STARTCHAR ellipsis
ENCODING 8230
SWIDTH 787 0
DWIDTH 7 0
BBX 7 2 0 -1
BITMAP
882A3780
893B3890
ENDCHAR
STARTCHAR perthousand
ENCODING 8240
SWIDTH 888 0
DWIDTH 8 0
BBX 9 8 0 -1
BITMAP
4825C00000
E6AB900000
8B6F200000
008B000000
00D5523400
05D99ECC40
0B66CCCC20
0410100000
ENDCHAR
STARTCHAR guilsinglleft
ENCODING 8249
SWIDTH 234 0
DWIDTH 2 0
BBX 2 6 0 -1
BITMAP
02
1C
B7
98
0B
01
ENDCHAR
STARTCHAR guilsinglright
ENCODING 8250
SWIDTH 223 0
DWIDTH 2 0
BBX 2 6 0 -1
BITMAP
20
B2
5C
6A
A1
10
ENDCHAR
STARTCHAR fraction
ENCODING 8260
SWIDTH 600 0
DWIDTH 5 0
BBX 7 9 -1 -1
BITMAP
00000400
00004F70
0000CD10
0006F500
001EB000
009E2000
02F70000
0BD00000
1D400000
ENDCHAR
STARTCHAR Euro
ENCODING 8364
SWIDTH 590 0
DWIDTH 5 0
BBX 7 6 -1 0
BITMAP
003AB700
01E51F30
3DFB6300
2BFB9020
00DC6A20
00178300
ENDCHAR
STARTCHAR trademark
ENCODING 8482
SWIDTH 624 0
DWIDTH 6 0
BBX 6 5 0 2
BITMAP
220000
B70000
91A983
947656
110110
ENDCHAR
STARTCHAR minus
ENCODING 8722
SWIDTH 549 0
DWIDTH 5 0
BBX 5 2 0 2
BITMAP
CDCB90
999860
ENDCHAR
STARTCHAR fi
ENCODING 64257
SWIDTH 757 0
DWIDTH 7 0
BBX 8 13 -1 -4
BITMAP
00049710
004D39C0
00A908F2
00B90370
07DD8882
04AE48F2
006F04F1
004F13F0
003F5BF8
001F5000
390E5000
4D5E1000
05830000
ENDCHAR
STARTCHAR fl
ENCODING 64258
SWIDTH 776 0
DWIDTH 7 0
BBX 9 13 -1 -4
BITMAP
0004981000
004D2AC000
00A905F200
00B903F400
07DD85F400
04AE43F300
006F01F300
004F11F200
003F31F200
001F689810
390E500000
4D5E100000
0583000000
ENDCHAR
STARTCHAR .notdef
ENCODING -1
SWIDTH 320 0
DWIDTH 3 0
BBX 1 1 0 0
BITMAP
00
ENDCHAR
ENDFONT
